FFmpeg version SVN-r25716, Copyright (c) 2000-2010 the FFmpeg developers  built on Nov 10 2010 12:23:18 with gcc 4.1.2 20080704 (Red Hat 4.1.2-48)  configuration: --enable-libmp3lame --enable-shared --disable-mmx --arch=x86_64  libavutil     50.33. 0 / 50.33. 0  libavcore      0.12. 1 /  0.12. 1  libavcodec    52.94. 4 / 52.94. 4  libavformat   52.84. 0 / 52.84. 0  libavdevice   52. 2. 2 / 52. 2. 2  libavfilter    1.59. 0 /  1.59. 0  libswscale     0.12. 0 /  0.12. 0Input #0, avi, from '/RAID10/data/converted_video_files/47542.avi':  Duration: 00:00:01.36, start: 0.000000, bitrate: 283121 kb/s    Stream #0.0: Video: msvideo1, rgb555le, 1024x1024, 30 tbr, 30 tbn, 30 tbc[buffer @ 0x8949b40] w:1024 h:1024 pixfmt:rgb555le[ffsink @ 0x8983ec0] auto-inserting filter 'auto-inserted scaler 0' between the filter 'src' and the filter 'out'[scale @ 0x89841e0] w:1024 h:1024 fmt:rgb555le -> w:1024 h:1024 fmt:yuv420p flags:0x4Output #0, flv, to '/RAID10/data/converted_video_files/47542.flv':  Metadata:    encoder         : Lavf52.84.0    Stream #0.0: Video: flv, yuv420p, 1024x1024, q=2-31, 600 kb/s, 1k tbn, 24 tbcStream mapping:  Stream #0.0 -> #0.0Press [q] to stop encodingframe=    6 fps=  0 q=8.1 size=    1061kB time=0.25 bitrate=34777.6kbits/s dup=0 drop=1    frame=   13 fps= 11 q=22.8 size=    1134kB time=0.54 bitrate=17132.5kbits/s dup=0 drop=3    frame=   22 fps= 13 q=31.0 size=    1151kB time=0.92 bitrate=10286.3kbits/s dup=0 drop=5    frame=   31 fps= 13 q=31.0 size=    1218kB time=1.29 bitrate=7723.7kbits/s dup=0 drop=7    frame=   33 fps= 13 q=31.0 Lsize=    1237kB time=1.38 bitrate=7367.3kbits/s dup=0 drop=8    video:1236kB audio:0kB global headers:0kB muxing overhead 0.058316%